<?xml version="1.0" standalone="no"?>
<!DOCTYPE svg PUBLIC "-//W3C//DTD SVG 20010904//EN"
 "http://www.w3.org/TR/2001/REC-SVG-20010904/DTD/svg10.dtd">
<svg version="1.0" xmlns="http://www.w3.org/2000/svg"
 width="1217.000000pt" height="400.000000pt" viewBox="0 0 1217.000000 400.000000"
 preserveAspectRatio="xMidYMid meet">
<metadata>
Created by potrace 1.16, written by Peter Selinger 2001-2019
</metadata>
<g transform="translate(0.000000,400.000000) scale(0.100000,-0.100000)"
fill="#e05012" stroke="none">
<path d="M1242 3959 c-233 -30 -436 -130 -603 -298 -175 -176 -266 -368 -300
-632 l-11 -86 -55 -6 c-100 -10 -184 -79 -222 -183 -21 -55 -22 -71 -19 -373
3 -310 3 -317 27 -365 46 -92 117 -145 211 -155 l54 -6 14 -95 c16 -113 69
-279 118 -370 99 -180 275 -355 449 -443 106 -53 273 -94 408 -99 l67 -3 0
-412 c0 -227 3 -413 7 -413 3 0 14 6 22 14 15 13 969 677 1099 765 l63 42 252
-1 c311 -1 464 11 582 45 282 81 520 281 645 540 39 82 78 220 93 335 l13 95
54 6 c102 11 169 61 215 161 l26 57 -3 333 c-3 324 -4 334 -26 375 -47 89
-125 143 -218 151 l-51 4 -7 73 c-17 189 -92 390 -197 530 -177 236 -427 384
-702 414 -114 13 -1907 13 -2005 0z m2042 -433 c226 -67 383 -243 431 -482 14
-70 16 -159 13 -685 -3 -553 -5 -609 -22 -659 -74 -222 -243 -381 -456 -426
-48 -10 -156 -14 -418 -14 l-353 0 -344 -230 -345 -230 0 230 0 230 -242 0
c-278 0 -342 10 -457 66 -99 49 -207 151 -255 244 -76 143 -76 147 -76 834 0
684 -2 666 72 815 68 141 211 260 358 302 86 24 209 26 1120 25 841 -2 920 -4
974 -20z"/>
<path d="M1463 3001 c-193 -48 -256 -290 -111 -428 45 -44 96 -63 168 -63 72
0 123 19 168 63 155 148 66 407 -148 431 -25 2 -59 1 -77 -3z"/>
<path d="M2853 2975 c-185 -93 -171 -381 22 -455 41 -16 146 -14 186 3 166 69
202 311 63 426 -71 57 -185 68 -271 26z"/>
<path d="M1674 2151 c-17 -10 -36 -33 -44 -50 -26 -65 10 -131 114 -208 231
-170 516 -217 771 -126 125 45 270 141 319 211 56 82 21 177 -72 189 -37 5
-44 1 -111 -55 -214 -180 -450 -211 -681 -91 -43 22 -105 65 -138 95 -67 61
-103 69 -158 35z"/>
<path d="M11250 3024 c-181 -35 -286 -89 -405 -209 -75 -74 -98 -105 -132
-175 -62 -127 -77 -200 -77 -365 0 -166 16 -243 75 -362 69 -140 216 -277 357
-332 190 -75 499 -63 675 26 119 59 240 180 299 297 53 105 70 178 75 332 6
156 -7 250 -51 361 -72 184 -245 338 -451 403 -54 17 -101 23 -205 25 -74 2
-146 1 -160 -1z m222 -285 c122 -26 229 -110 281 -222 90 -191 48 -471 -90
-598 -121 -111 -319 -138 -480 -64 -251 114 -311 547 -106 766 97 103 249 149
395 118z"/>
<path d="M5240 2280 l0 -732 373 4 c356 4 375 5 442 27 124 41 204 89 291 176
125 125 184 251 203 438 35 342 -113 616 -403 747 -128 58 -159 62 -548 67
l-358 5 0 -732z m720 426 c76 -28 147 -84 190 -148 58 -87 75 -151 75 -283 0
-175 -47 -281 -159 -366 -80 -61 -127 -72 -328 -77 l-178 -4 0 452 0 452 178
-4 c134 -4 188 -9 222 -22z"/>
<path d="M6800 2280 l0 -730 155 0 155 0 0 730 0 730 -155 0 -155 0 0 -730z"/>
<path d="M7320 2870 l0 -140 205 0 205 0 0 -590 0 -590 160 0 160 0 0 590 0
590 205 0 205 0 0 140 0 140 -570 0 -570 0 0 -140z"/>
<path d="M8670 2280 l0 -730 160 0 160 0 0 730 0 730 -160 0 -160 0 0 -730z"/>
<path d="M9290 2281 l0 -731 160 0 160 0 0 260 0 260 108 0 107 0 144 -260
143 -260 185 0 185 0 -20 33 c-62 100 -312 530 -310 532 2 1 29 14 61 30 159
79 248 249 234 446 -15 188 -128 329 -315 391 -64 21 -87 22 -454 26 l-388 4
0 -731z m691 439 c57 -16 102 -51 127 -100 19 -37 22 -54 17 -99 -8 -72 -34
-111 -97 -147 -52 -29 -55 -29 -235 -32 l-183 -4 0 196 0 196 168 0 c92 0 183
-5 203 -10z"/>
</g>
</svg>
