<?xml version="1.0" standalone="no"?>
<!DOCTYPE svg PUBLIC "-//W3C//DTD SVG 20010904//EN"
 "http://www.w3.org/TR/2001/REC-SVG-20010904/DTD/svg10.dtd">
<svg version="1.0" xmlns="http://www.w3.org/2000/svg"
 width="1412.000000pt" height="1263.000000pt" viewBox="0 0 1412.000000 1263.000000"
 preserveAspectRatio="xMidYMid meet">
<metadata>
Created by potrace 1.16, written by Peter Selinger 2001-2019
</metadata>
<g transform="translate(0.000000,1263.000000) scale(0.100000,-0.100000)"
fill="#e05012" stroke="none">
<path d="M4100 12330 c-613 -40 -1211 -277 -1710 -676 -385 -309 -660 -652
-881 -1099 -181 -368 -294 -798 -315 -1207 l-7 -128 -57 0 c-123 0 -256 -37
-400 -112 -264 -136 -442 -392 -480 -689 -6 -52 -10 -388 -10 -894 0 -865 3
-920 51 -1065 26 -78 48 -124 104 -210 153 -238 405 -383 705 -406 l90 -7 0
-51 c0 -68 26 -307 46 -426 52 -315 176 -674 325 -945 308 -559 748 -996 1314
-1304 419 -229 850 -342 1393 -366 l152 -7 0 -1254 c0 -690 3 -1254 6 -1254
10 0 386 257 2581 1762 l1091 748 854 0 c1046 0 1214 9 1552 85 607 136 1193
481 1622 953 499 549 779 1213 820 1945 l7 113 113 12 c373 40 667 268 786
612 45 130 48 196 48 1067 0 535 -4 849 -11 899 -47 342 -269 617 -590 735
-100 37 -209 59 -288 59 l-58 0 -6 133 c-16 331 -101 705 -233 1026 -323 783
-981 1436 -1754 1741 -251 99 -453 152 -730 193 -145 21 -145 21 -3080 23
-1614 1 -2987 -2 -3050 -6z m5980 -1298 c197 -36 319 -74 456 -141 257 -125
398 -226 579 -412 218 -225 371 -489 460 -794 63 -218 59 -72 62 -2090 3
-1620 2 -1854 -12 -1960 -21 -161 -54 -285 -114 -434 -264 -647 -849 -1092
-1530 -1161 -65 -6 -492 -10 -1151 -10 l-1047 0 -77 -50 c-68 -44 -784 -530
-1733 -1176 l-313 -213 0 719 0 719 -762 4 c-726 4 -768 5 -873 25 -523 101
-968 405 -1246 852 -94 152 -196 398 -234 563 -45 197 -45 172 -45 2062 0
1156 4 1821 10 1875 23 186 69 345 164 560 129 293 377 582 665 774 92 62 278
158 384 200 94 37 310 86 426 95 162 14 5854 6 5931 -7z"/>
<path d="M4675 9376 c-297 -70 -515 -286 -586 -581 -18 -75 -20 -109 -16 -205
9 -183 56 -312 161 -448 95 -120 209 -199 366 -254 91 -31 102 -32 240 -32
136 0 151 2 240 32 130 43 210 93 306 187 131 129 201 273 224 458 19 156 -10
301 -93 462 -58 112 -190 244 -302 302 -130 67 -201 85 -350 89 -88 2 -149 -1
-190 -10z"/>
<path d="M9134 9376 c-234 -54 -423 -204 -534 -425 -95 -190 -95 -456 0 -660
167 -355 574 -527 947 -399 136 47 202 87 298 183 114 115 178 232 212 388 23
110 14 289 -21 392 -83 245 -261 423 -501 501 -100 32 -302 42 -401 20z"/>
<path d="M5424 6816 c-105 -26 -188 -97 -236 -202 -18 -39 -22 -67 -22 -135 0
-129 29 -181 186 -335 320 -313 717 -535 1136 -638 224 -55 349 -70 592 -70
233 0 312 9 520 56 452 102 895 348 1219 677 124 126 156 189 156 311 0 71 -5
94 -26 140 -39 81 -90 134 -165 171 -57 28 -76 33 -142 32 -124 0 -168 -22
-313 -160 -67 -64 -159 -142 -203 -175 -530 -393 -1204 -463 -1796 -186 -194
91 -349 198 -510 353 -121 116 -154 139 -235 160 -69 18 -92 18 -161 1z"/>
</g>
</svg>
